<svg xmlns="http://www.w3.org/2000/svg" xmlns:xlink="http://www.w3.org/1999/xlink" width="1080" zoomAndPan="magnify" viewBox="0 0 810 809.999993" height="1080" preserveAspectRatio="xMidYMid meet" version="1.0"><defs><clipPath id="697f859559"><path d="M 330 653 L 810 653 L 810 785.0625 L 330 785.0625 Z M 330 653 " clip-rule="nonzero"/></clipPath><clipPath id="2fed8b4ef6"><path d="M 0.0429688 189 L 377 189 L 377 785.0625 L 0.0429688 785.0625 Z M 0.0429688 189 " clip-rule="nonzero"/></clipPath><clipPath id="f78c32870e"><path d="M 97 25.3125 L 279 25.3125 L 279 226 L 97 226 Z M 97 25.3125 " clip-rule="nonzero"/></clipPath></defs><g clip-path="url(#697f859559)"><path fill="#000000" d="M 686.648438 785.066406 L 339.125 785.066406 C 334.484375 785.066406 330.691406 781.261719 330.691406 776.625 C 330.691406 771.980469 334.484375 768.175781 339.125 768.175781 L 686.648438 768.175781 C 742.546875 768.175781 788.527344 724.859375 792.851562 670.046875 L 368.128906 670.046875 C 363.484375 670.046875 359.691406 666.242188 359.691406 661.605469 C 359.691406 656.960938 363.484375 653.15625 368.128906 653.15625 L 801.609375 653.164062 C 806.242188 653.164062 810.046875 656.960938 810.046875 661.605469 C 810.046875 694.46875 797.171875 725.445312 773.816406 748.820312 C 750.453125 772.183594 719.503906 785.066406 686.648438 785.066406 " fill-opacity="1" fill-rule="evenodd"/></g><path fill="#000000" d="M 497.328125 670.046875 C 451.394531 670.046875 405.414062 659.332031 364.386719 639.074219 C 360.222656 637.011719 358.480469 631.953125 360.53125 627.78125 C 362.59375 623.617188 367.65625 621.871094 371.820312 623.933594 C 410.527344 643.03125 453.925781 653.105469 497.277344 653.105469 C 652.847656 653.105469 779.402344 526.269531 779.402344 370.316406 C 779.402344 214.671875 652.847656 88.042969 497.277344 88.042969 C 410.734375 88.042969 330.320312 126.503906 276.582031 193.5625 C 273.679688 197.203125 268.359375 197.789062 264.71875 194.886719 C 261.082031 191.984375 260.496094 186.660156 263.398438 183.011719 C 290.769531 148.875 326.046875 120.648438 365.492188 101.449219 C 406.675781 81.34375 451.023438 71.160156 497.277344 71.160156 C 537.617188 71.160156 576.75 79.078125 613.605469 94.6875 C 649.199219 109.785156 681.160156 131.355469 708.636719 158.84375 C 736.109375 186.332031 757.679688 218.3125 772.761719 253.921875 C 788.425781 290.859375 796.328125 330.007812 796.328125 370.367188 C 796.328125 410.832031 788.425781 450.082031 772.8125 487.019531 C 757.730469 522.679688 736.164062 554.761719 708.6875 582.25 C 681.214844 609.738281 649.257812 631.371094 613.664062 646.457031 C 576.800781 662.128906 537.671875 670.046875 497.328125 670.046875 " fill-opacity="1" fill-rule="evenodd"/><path fill="#000000" d="M 497.328125 631.535156 C 450.398438 631.535156 404.203125 618.917969 363.855469 595.019531 C 359.855469 592.640625 358.53125 587.472656 360.902344 583.460938 C 363.28125 579.453125 368.445312 578.136719 372.453125 580.507812 C 410.210938 602.878906 453.402344 614.703125 497.382812 614.703125 C 631.699219 614.703125 741.011719 505.121094 741.011719 370.417969 C 741.011719 236.035156 631.699219 126.667969 497.382812 126.667969 C 416.539062 126.667969 341.074219 166.503906 295.515625 233.246094 C 292.882812 237.09375 287.652344 238.097656 283.808594 235.460938 C 279.953125 232.824219 278.960938 227.59375 281.59375 223.746094 C 305.058594 189.347656 336.75 160.75 373.347656 141.019531 C 411.164062 120.597656 454.089844 109.785156 497.382812 109.785156 C 532.554688 109.785156 566.671875 116.699219 598.789062 130.257812 C 629.792969 143.398438 657.695312 162.175781 681.582031 186.128906 C 705.46875 210.085938 724.300781 237.941406 737.433594 268.960938 C 751.035156 301.09375 757.886719 335.226562 757.886719 370.417969 C 757.886719 405.714844 750.984375 439.960938 737.433594 472.195312 C 724.300781 503.324219 705.519531 531.234375 681.582031 555.183594 C 657.644531 579.140625 629.792969 597.972656 598.789062 611.113281 C 566.621094 624.621094 532.503906 631.535156 497.328125 631.535156 " fill-opacity="1" fill-rule="evenodd"/><path fill="#000000" d="M 422.976562 417.847656 C 421.335938 417.847656 419.652344 417.375 418.175781 416.371094 C 414.324219 413.734375 413.371094 408.453125 416.066406 404.605469 L 520.476562 253.710938 C 523.113281 249.863281 528.390625 248.910156 532.238281 251.605469 C 536.089844 254.242188 537.035156 259.515625 534.347656 263.371094 L 429.933594 414.265625 C 428.246094 416.585938 425.660156 417.847656 422.976562 417.847656 " fill-opacity="1" fill-rule="evenodd"/><path fill="#000000" d="M 466.738281 491.191406 C 465.109375 491.191406 463.417969 490.710938 461.941406 489.707031 C 458.097656 487.070312 457.144531 481.796875 459.839844 477.941406 L 564.242188 327.054688 C 566.886719 323.199219 572.15625 322.246094 576.011719 324.941406 C 579.855469 327.578125 580.808594 332.851562 578.121094 336.707031 L 473.699219 487.59375 C 472.019531 489.921875 469.433594 491.191406 466.738281 491.191406 " fill-opacity="1" fill-rule="evenodd"/><g clip-path="url(#2fed8b4ef6)"><path fill="#000000" d="M 339.125 785.066406 L 37.484375 785.066406 C 16.867188 785.066406 0.0429688 768.492188 0.0429688 748.132812 L 0.0429688 377.21875 C 0.0429688 351.957031 5.054688 327.421875 14.859375 304.253906 C 24.351562 281.882812 37.964844 261.839844 55.257812 244.527344 C 72.554688 227.277344 92.699219 213.667969 115.109375 204.167969 C 138.308594 194.355469 162.941406 189.347656 188.304688 189.347656 C 213.566406 189.347656 238.085938 194.355469 261.285156 204.167969 C 283.707031 213.667969 303.789062 227.226562 321.144531 244.476562 C 338.492188 261.78125 352.09375 281.832031 361.640625 304.203125 C 371.554688 327.421875 376.566406 351.957031 376.566406 377.21875 L 376.566406 748.132812 C 376.566406 768.492188 359.742188 785.066406 339.125 785.066406 Z M 188.304688 206.28125 C 93.804688 206.28125 16.917969 282.941406 16.917969 377.21875 L 16.917969 748.132812 C 16.917969 759.210938 26.144531 768.175781 37.484375 768.175781 L 339.125 768.175781 C 350.464844 768.175781 359.691406 759.210938 359.691406 748.132812 L 359.691406 377.21875 C 359.691406 282.941406 282.804688 206.28125 188.304688 206.28125 " fill-opacity="1" fill-rule="evenodd"/></g><path fill="#000000" d="M 368.128906 643.136719 L 8.480469 643.136719 C 3.835938 643.136719 0.0429688 639.339844 0.0429688 634.695312 C 0.0429688 630.046875 3.835938 626.253906 8.480469 626.253906 L 368.128906 626.253906 C 372.773438 626.253906 376.566406 630.046875 376.566406 634.695312 C 376.566406 639.339844 372.773438 643.136719 368.128906 643.136719 Z M 368.128906 385.671875 C 364.386719 385.671875 361.21875 383.238281 360.113281 379.867188 L 16.496094 379.867188 C 15.390625 383.238281 12.222656 385.671875 8.480469 385.671875 C 3.835938 385.671875 0.0429688 381.867188 0.0429688 377.21875 L 0.0429688 371.425781 C 0.0429688 366.777344 3.835938 362.984375 8.480469 362.984375 L 367.605469 362.984375 C 372.238281 362.984375 376.042969 366.777344 376.042969 371.425781 C 376.042969 372 376.144531 372.789062 376.25 373.640625 C 376.410156 374.746094 376.566406 375.957031 376.566406 377.21875 C 376.566406 381.867188 372.773438 385.671875 368.128906 385.671875 " fill-opacity="1" fill-rule="evenodd"/><g clip-path="url(#f78c32870e)"><path fill="#000000" d="M 270.042969 225.800781 C 265.40625 225.800781 261.605469 222.003906 261.605469 217.359375 L 261.605469 42.195312 L 114.480469 42.195312 L 114.480469 217.359375 C 114.480469 222.003906 110.679688 225.800781 106.035156 225.800781 C 101.402344 225.800781 97.597656 222.003906 97.597656 217.359375 L 97.609375 33.753906 C 97.609375 29.109375 101.402344 25.3125 106.035156 25.3125 L 270.042969 25.3125 C 274.683594 25.3125 278.480469 29.109375 278.480469 33.753906 L 278.480469 217.359375 C 278.480469 222.003906 274.683594 225.800781 270.042969 225.800781 " fill-opacity="1" fill-rule="evenodd"/></g></svg>