<svg xmlns="http://www.w3.org/2000/svg" xmlns:xlink="http://www.w3.org/1999/xlink" width="1080" zoomAndPan="magnify" viewBox="0 0 810 809.999993" height="1080" preserveAspectRatio="xMidYMid meet" version="1.0"><defs><clipPath id="cc64739eed"><path d="M 264.769531 391 L 545.269531 391 L 545.269531 810 L 264.769531 810 Z M 264.769531 391 " clip-rule="nonzero"/></clipPath></defs><path fill="#000000" d="M 473.996094 223.273438 C 484.851562 223.273438 494.585938 226.828125 500.578125 234.128906 C 507.875 240.117188 511.433594 249.851562 511.433594 260.703125 L 511.433594 398.261719 C 511.433594 401.820312 509 405.5625 504.132812 405.5625 L 304.96875 405.5625 C 301.410156 405.5625 297.667969 402.003906 297.667969 398.261719 L 297.667969 260.703125 C 297.667969 249.851562 302.535156 240.117188 308.523438 234.128906 C 315.824219 226.828125 324.25 223.273438 335.105469 223.273438 Z M 335.105469 237.871094 C 329.117188 237.871094 322.9375 240.304688 319.382812 243.859375 C 314.515625 248.726562 312.082031 253.59375 312.082031 260.703125 L 312.082031 391.152344 L 496.832031 391.152344 L 496.832031 260.703125 C 496.832031 253.40625 494.398438 248.726562 490.84375 243.859375 C 485.976562 240.304688 481.109375 237.871094 473.996094 237.871094 Z M 335.105469 237.871094 " fill-opacity="1" fill-rule="nonzero"/><g clip-path="url(#cc64739eed)"><path fill="#000000" d="M 517.421875 391.152344 C 524.722656 391.152344 531.835938 393.582031 536.703125 398.449219 C 541.570312 404.4375 545.125 410.425781 545.125 419.035156 L 545.125 782.300781 C 545.125 789.601562 541.570312 796.710938 536.703125 801.578125 C 531.835938 807.566406 524.535156 810 517.421875 810 L 292.800781 810 C 284.378906 810 277.078125 807.566406 272.210938 801.578125 C 267.34375 796.710938 264.910156 789.601562 264.910156 782.300781 L 264.910156 419.035156 C 264.910156 410.613281 267.34375 404.625 272.210938 398.449219 C 277.078125 393.582031 284.191406 391.152344 292.800781 391.152344 Z M 292.800781 405.5625 C 289.246094 405.5625 285.5 406.683594 283.066406 409.117188 C 280.632812 411.550781 278.199219 415.105469 278.199219 418.847656 L 278.199219 782.113281 C 278.199219 785.671875 280.632812 789.414062 283.066406 791.847656 C 285.5 794.277344 289.058594 795.402344 292.800781 795.402344 L 517.421875 795.402344 C 520.980469 795.402344 524.722656 794.277344 527.15625 791.847656 C 529.589844 789.414062 530.714844 785.855469 530.714844 782.113281 L 530.714844 418.847656 C 530.714844 415.292969 529.589844 411.550781 527.15625 409.117188 C 524.722656 406.683594 521.167969 405.5625 517.421875 405.5625 Z M 292.800781 405.5625 " fill-opacity="1" fill-rule="nonzero"/></g><path fill="#000000" d="M 461.828125 75.984375 C 470.253906 81.972656 478.675781 88.148438 478.675781 102.558594 L 478.675781 230.574219 C 478.675781 234.128906 476.242188 237.871094 471.375 237.871094 L 337.539062 237.871094 C 333.980469 237.871094 330.238281 234.316406 330.238281 230.574219 L 330.238281 31.441406 C 330.238281 24.144531 333.796875 14.597656 337.539062 8.609375 C 339.972656 6.175781 342.40625 3.742188 343.527344 2.621094 C 347.273438 1.121094 349.519531 0 351.953125 0 C 355.507812 0 357.941406 0 360.375 2.433594 L 456.960938 72.429688 Z M 351.953125 14.410156 C 350.828125 14.410156 350.828125 15.535156 349.519531 16.84375 C 347.085938 20.398438 344.652344 26.574219 344.652344 31.253906 L 344.652344 223.273438 L 464.074219 223.273438 L 464.074219 102.558594 C 464.074219 95.261719 459.207031 91.707031 453.21875 88.148438 L 448.539062 84.40625 Z M 351.953125 14.410156 " fill-opacity="1" fill-rule="nonzero"/><path fill="#000000" d="M 379.84375 80.851562 C 379.84375 75.984375 377.410156 73.550781 372.542969 73.550781 C 368.984375 73.550781 365.242188 75.984375 365.242188 80.851562 L 365.242188 199.132812 C 365.242188 202.6875 368.796875 206.429688 372.542969 206.429688 C 377.410156 206.429688 379.84375 202.875 379.84375 199.132812 Z M 379.84375 80.851562 " fill-opacity="1" fill-rule="nonzero"/><path fill="#000000" d="M 335.105469 496.144531 C 335.105469 492.585938 331.546875 488.84375 327.804688 488.84375 C 322.9375 488.84375 320.503906 492.402344 320.503906 496.144531 L 320.503906 703.695312 C 320.503906 708.5625 322.9375 710.996094 327.804688 710.996094 L 482.417969 710.996094 C 485.976562 710.996094 489.71875 708.5625 489.71875 703.695312 C 489.71875 700.140625 486.164062 696.398438 482.417969 696.398438 L 335.105469 696.398438 Z M 335.105469 496.144531 " fill-opacity="1" fill-rule="nonzero"/></svg>