<svg xmlns="http://www.w3.org/2000/svg" xmlns:xlink="http://www.w3.org/1999/xlink" width="1080" zoomAndPan="magnify" viewBox="0 0 810 809.999993" height="1080" preserveAspectRatio="xMidYMid meet" version="1.0"><defs><clipPath id="560b629c93"><path d="M 156.1875 0 L 654 0 L 654 810 L 156.1875 810 Z M 156.1875 0 " clip-rule="nonzero"/></clipPath></defs><g clip-path="url(#560b629c93)"><path fill="#000000" d="M 561.082031 57.019531 C 560.015625 57.019531 558.953125 56.925781 557.886719 56.925781 C 532.914062 56.925781 509.296875 66.507812 491.292969 83.832031 C 473.289062 101.257812 462.835938 124.679688 462.058594 149.75 C 461.964844 153.816406 462.058594 157.785156 462.445312 161.753906 L 424.601562 325.53125 L 398.078125 331.917969 L 345.808594 132.230469 C 342.128906 115.582031 334.097656 100.191406 322.09375 87.414062 C 321.996094 87.316406 321.898438 87.222656 321.804688 87.125 C 321.707031 86.832031 321.511719 86.542969 321.320312 86.253906 C 293.054688 44.628906 253.660156 23.53125 225.492188 13.171875 C 195.195312 2.039062 171.675781 0.6875 170.707031 0.589844 C 166.929688 0.394531 163.738281 3.300781 163.542969 7.074219 C 163.347656 10.847656 166.253906 14.042969 170.027344 14.332031 C 170.222656 14.332031 192.871094 15.785156 221.425781 26.335938 C 238.851562 32.820312 260.917969 43.664062 281.441406 61.667969 C 273.117188 59.054688 264.308594 57.503906 255.304688 57.214844 C 254.242188 57.214844 253.175781 57.214844 252.109375 57.214844 C 227.136719 57.214844 203.519531 66.796875 185.515625 84.125 C 167.511719 101.546875 157.15625 124.972656 156.285156 150.039062 C 154.542969 202.890625 196.164062 247.320312 249.011719 249.0625 C 250.078125 249.0625 251.144531 249.0625 252.207031 249.0625 C 277.179688 249.0625 300.800781 239.480469 318.804688 222.152344 C 321.125 219.925781 323.253906 217.605469 325.289062 215.183594 L 375.039062 397.160156 L 325.09375 615.046875 L 324.996094 615.144531 C 323.160156 617.078125 322.675781 619.691406 323.449219 622.015625 L 302.542969 713.292969 C 301.960938 714.359375 301.671875 715.617188 301.765625 716.777344 L 284.925781 790.148438 C 284.148438 793.632812 286.085938 797.117188 289.472656 798.183594 L 314.929688 806.3125 C 315.609375 806.507812 316.285156 806.605469 317.058594 806.605469 C 318.125 806.605469 319.191406 806.3125 320.15625 805.828125 C 321.804688 804.957031 322.964844 803.601562 323.546875 801.859375 L 410.757812 528.125 L 486.257812 804.378906 C 486.742188 806.121094 487.90625 807.667969 489.453125 808.539062 C 490.519531 809.121094 491.679688 809.410156 492.839844 809.410156 C 493.421875 809.410156 494.097656 809.3125 494.679688 809.121094 L 520.332031 801.765625 C 523.71875 800.796875 525.847656 797.410156 525.171875 793.925781 L 449.574219 386.800781 L 491.390625 221.960938 C 507.941406 237.929688 530.105469 247.996094 554.789062 248.773438 C 555.855469 248.773438 556.917969 248.867188 557.984375 248.867188 C 582.957031 248.867188 606.574219 239.285156 624.578125 221.960938 C 642.582031 204.535156 652.941406 181.113281 653.8125 156.140625 C 655.554688 103.191406 613.933594 58.761719 561.082031 57.019531 Z M 312.511719 791.117188 L 299.539062 786.953125 L 303.507812 769.433594 L 327.222656 744.558594 Z M 330.515625 734.878906 C 330.128906 734.199219 329.742188 733.523438 329.0625 732.941406 C 326.351562 730.328125 321.996094 730.425781 319.382812 733.136719 L 309.605469 743.398438 L 315.125 719.488281 L 339.613281 693.835938 C 342.226562 691.128906 342.128906 686.769531 339.421875 684.15625 C 336.710938 681.542969 332.355469 681.640625 329.742188 684.351562 L 321.125 693.351562 L 326.160156 671.574219 C 326.546875 671.285156 326.933594 670.992188 327.222656 670.605469 L 353.261719 643.308594 C 355.875 640.601562 355.777344 636.242188 353.070312 633.628906 C 350.359375 631.015625 346.003906 631.113281 343.390625 633.824219 L 332.0625 645.730469 L 337.582031 621.628906 L 361.003906 597.140625 C 363.617188 594.429688 363.523438 590.074219 360.8125 587.460938 C 358.101562 584.847656 353.746094 584.941406 351.132812 587.652344 L 343.582031 595.589844 L 347.164062 579.8125 C 348.035156 579.425781 348.808594 578.941406 349.488281 578.265625 L 375.523438 550.96875 C 378.136719 548.257812 378.042969 543.902344 375.332031 541.289062 C 372.621094 538.675781 368.265625 538.769531 365.652344 541.480469 L 352.972656 554.839844 L 358.488281 530.738281 L 383.269531 504.796875 C 385.882812 502.085938 385.785156 497.730469 383.074219 495.117188 C 380.363281 492.503906 376.007812 492.601562 373.394531 495.308594 L 364.492188 504.601562 L 382.785156 425.035156 L 404.273438 503.828125 Z M 497.582031 794.117188 L 417.824219 502.183594 C 417.824219 502.183594 417.824219 502.183594 417.824219 502.085938 L 388.6875 395.222656 C 388.6875 395.125 388.6875 395.125 388.6875 395.03125 L 335.546875 200.472656 L 334.773438 197.664062 C 333.804688 193.984375 330.03125 191.855469 326.351562 192.824219 C 324.707031 193.308594 323.351562 194.277344 322.480469 195.632812 C 322.382812 195.824219 322.289062 195.921875 322.191406 196.117188 C 322.191406 196.117188 322.09375 196.210938 322.09375 196.210938 C 318.511719 201.921875 314.253906 207.246094 309.316406 212.085938 C 293.925781 226.992188 273.597656 235.222656 252.207031 235.222656 C 251.335938 235.222656 250.367188 235.222656 249.496094 235.222656 C 204.195312 233.769531 168.480469 195.726562 169.929688 150.332031 C 170.609375 128.84375 179.515625 108.804688 195 93.898438 C 210.390625 78.992188 230.71875 70.765625 252.109375 70.765625 C 252.980469 70.765625 253.949219 70.765625 254.820312 70.765625 C 276.792969 71.441406 297.121094 80.734375 312.125 96.707031 C 322.289062 107.449219 329.160156 120.519531 332.355469 134.554688 C 332.355469 134.746094 332.449219 135.039062 332.449219 135.230469 L 332.546875 135.617188 L 344.164062 180.046875 L 386.460938 341.890625 C 387.429688 345.472656 391.109375 347.695312 394.691406 346.824219 L 426.828125 339.082031 L 510.746094 790.34375 Z M 640.164062 155.65625 C 639.484375 177.144531 630.582031 197.179688 615.09375 212.085938 C 607.351562 219.539062 598.445312 225.347656 588.765625 229.21875 C 579.085938 233.089844 568.632812 235.222656 557.984375 235.222656 C 557.113281 235.222656 556.144531 235.222656 555.273438 235.222656 C 530.105469 234.445312 507.84375 222.25 493.324219 203.859375 C 492.453125 202.699219 491.097656 201.828125 489.550781 201.4375 C 485.871094 200.472656 482.195312 202.699219 481.226562 206.375 L 480.449219 209.472656 L 443.570312 354.667969 L 438.925781 329.5 C 438.828125 328.820312 438.539062 328.046875 438.152344 327.46875 L 469.804688 190.695312 L 475.902344 164.171875 C 476.09375 163.109375 476.191406 162.238281 476.09375 161.367188 C 475.707031 157.6875 475.613281 153.914062 475.707031 150.136719 C 476.386719 128.648438 485.289062 108.613281 500.777344 93.707031 C 516.167969 78.800781 536.496094 70.570312 557.886719 70.570312 C 558.757812 70.570312 559.726562 70.570312 560.597656 70.570312 C 605.898438 72.21875 641.617188 110.257812 640.164062 155.65625 Z M 640.164062 155.65625 " fill-opacity="1" fill-rule="nonzero"/></g><path fill="#000000" d="M 559.921875 91.769531 C 543.269531 91.1875 527.300781 97.382812 515.394531 108.902344 C 503.875 120.035156 497.292969 134.941406 496.710938 150.914062 C 495.648438 184.695312 522.167969 212.957031 555.953125 214.121094 C 556.628906 214.121094 557.308594 214.121094 557.984375 214.121094 C 573.957031 214.121094 589.054688 208.019531 600.476562 196.890625 C 611.996094 185.757812 618.578125 170.851562 619.160156 154.878906 C 620.222656 121.195312 593.703125 92.835938 559.921875 91.769531 Z M 605.414062 154.492188 C 604.542969 180.339844 583.730469 200.472656 557.886719 200.472656 C 557.402344 200.472656 556.824219 200.472656 556.339844 200.472656 C 530.105469 199.601562 509.488281 177.628906 510.359375 151.394531 C 511.230469 125.648438 532.042969 105.417969 557.789062 105.417969 C 558.273438 105.417969 558.855469 105.417969 559.339844 105.417969 C 585.667969 106.289062 606.285156 128.261719 605.414062 154.492188 Z M 605.414062 154.492188 " fill-opacity="1" fill-rule="nonzero"/><path fill="#000000" d="M 254.144531 91.867188 C 237.398438 91.285156 221.523438 97.480469 209.617188 109 C 198.097656 120.132812 191.515625 135.039062 190.9375 151.007812 C 189.871094 184.789062 216.394531 213.054688 250.175781 214.214844 C 250.851562 214.214844 251.53125 214.214844 252.207031 214.214844 C 268.179688 214.214844 283.277344 208.117188 294.699219 196.988281 C 306.21875 185.855469 312.800781 170.949219 313.382812 154.976562 C 314.445312 121.292969 287.828125 92.933594 254.144531 91.867188 Z M 299.636719 154.589844 C 298.765625 180.339844 277.957031 200.566406 252.109375 200.566406 C 251.625 200.566406 251.046875 200.566406 250.5625 200.566406 C 224.332031 199.695312 203.714844 177.722656 204.585938 151.492188 C 205.457031 125.648438 226.265625 105.515625 252.109375 105.515625 C 252.59375 105.515625 253.175781 105.515625 253.660156 105.515625 C 279.890625 106.386719 300.507812 128.359375 299.636719 154.589844 Z M 299.636719 154.589844 " fill-opacity="1" fill-rule="nonzero"/><path fill="#000000" d="M 414.050781 366.667969 C 404.464844 366.667969 396.625 374.507812 396.625 384.09375 C 396.625 393.675781 404.464844 401.515625 414.050781 401.515625 C 423.632812 401.515625 431.472656 393.675781 431.472656 384.09375 C 431.472656 374.507812 423.632812 366.667969 414.050781 366.667969 Z M 414.050781 387.867188 C 412.015625 387.867188 410.371094 386.222656 410.371094 384.1875 C 410.371094 382.15625 412.015625 380.511719 414.050781 380.511719 C 416.082031 380.511719 417.726562 382.15625 417.726562 384.1875 C 417.726562 386.222656 416.082031 387.867188 414.050781 387.867188 Z M 414.050781 387.867188 " fill-opacity="1" fill-rule="nonzero"/></svg>