<svg xmlns="http://www.w3.org/2000/svg" xmlns:xlink="http://www.w3.org/1999/xlink" width="1080" zoomAndPan="magnify" viewBox="0 0 810 809.999993" height="1080" preserveAspectRatio="xMidYMid meet" version="1.0"><path fill="#000000" d="M 430.535156 138.054688 C 455.371094 145.226562 479.742188 152.453125 504.167969 159.394531 C 534.835938 168.109375 565.230469 177.714844 595.863281 186.605469 C 635.039062 197.964844 673.679688 211.0625 712.949219 222.207031 C 734.351562 228.289062 755.789062 234.730469 775.316406 245.785156 C 784.4375 250.957031 793.753906 255.964844 800.492188 264.730469 C 809.558594 276.519531 804.785156 296.21875 791.355469 302.355469 C 768.21875 312.925781 744.328125 321.691406 721.101562 332.070312 C 719.921875 332.585938 718.652344 333.015625 717.382812 333.214844 C 713.429688 333.820312 709.675781 333.5 708.316406 328.921875 C 706.992188 324.429688 709.015625 321.300781 713.179688 319.582031 C 724.339844 314.949219 735.675781 310.726562 746.652344 305.734375 C 759.007812 300.117188 772.097656 296.394531 784.203125 290.171875 C 790.75 286.808594 792.984375 279.792969 788.816406 273.570312 C 786.527344 270.152344 783.597656 267.449219 780.039062 265.160156 C 757.078125 250.347656 731.382812 242.511719 705.472656 234.925781 C 673.089844 225.445312 640.726562 215.875 608.683594 205.210938 C 592.859375 199.953125 576.53125 196.214844 560.566406 191.363281 C 538.375 184.636719 516.058594 178.324219 493.851562 171.648438 C 471.304688 164.871094 448.738281 158.070312 426.152344 151.363281 C 412.421875 147.285156 398.671875 148.734375 385.082031 152.917969 C 368.59375 158 351.984375 162.652344 335.476562 167.679688 C 305.132812 176.910156 274.648438 185.710938 244.589844 195.800781 C 225.457031 202.222656 206.144531 208.289062 187.40625 215.980469 C 182.308594 218.074219 176.605469 218.59375 171.242188 220.078125 C 144.402344 227.449219 117.882812 235.875 91.492188 244.785156 C 74.449219 250.527344 57.214844 255.660156 40.101562 261.1875 C 29.710938 264.550781 21.648438 270.6875 17.480469 281.152344 C 14.046875 289.757812 15.640625 294.265625 24.203125 297.363281 C 42.730469 304.035156 61.414062 310.226562 79.992188 316.738281 C 103.988281 325.144531 127.84375 333.894531 151.910156 342.070312 C 187.207031 354.054688 222.96875 364.484375 258.984375 374.128906 C 281.371094 380.121094 304.078125 384.753906 326.429688 390.800781 C 346.296875 396.167969 366.214844 401.339844 386.277344 405.863281 C 397.667969 408.441406 409.09375 411.179688 420.894531 411 C 435.539062 410.785156 449.523438 406.847656 463.398438 402.75 C 480.65625 397.671875 497.839844 392.285156 514.96875 386.792969 C 536.871094 379.761719 558.847656 372.945312 580.503906 365.148438 C 602.515625 357.222656 624.828125 350.15625 647.003906 342.675781 C 651.578125 341.140625 656.050781 339.296875 660.644531 337.757812 C 665.632812 336.09375 669.550781 337.597656 670.640625 341.78125 C 671.855469 346.46875 669.980469 349.796875 665.347656 351.371094 C 651.972656 355.878906 638.617188 360.40625 625.207031 364.808594 C 617.140625 367.453125 616.945312 368.222656 616.210938 376.523438 C 614.421875 396.507812 613.867188 416.5625 612.296875 436.582031 C 610.917969 453.96875 610.308594 471.503906 610.597656 489.035156 C 610.722656 496.386719 610.578125 504.222656 604.765625 509.914062 C 596.003906 518.515625 587.171875 527.070312 577.25 534.367188 C 554.003906 551.433594 528.234375 563.652344 501.398438 573.742188 C 491.847656 577.339844 481.65625 577.035156 471.75 578.109375 C 443.585938 581.132812 415.261719 581.273438 386.992188 580.273438 C 361.960938 579.378906 336.945312 578.234375 311.964844 575.335938 C 291.203125 572.9375 273.125 564.816406 255.585938 554.566406 C 240.191406 545.566406 224.597656 536.871094 210.738281 525.511719 C 199.816406 516.550781 194.128906 505.476562 192.734375 490.734375 C 190.25 464.472656 191.519531 438.28125 190.839844 412.054688 C 190.535156 400.460938 192.429688 389.046875 193.214844 377.5625 C 193.574219 372.339844 191.730469 370.226562 186.777344 368.546875 C 151.769531 356.792969 116.882812 344.628906 81.941406 332.625 C 64.9375 326.792969 47.984375 320.78125 30.875 315.214844 C 22.667969 312.550781 14.386719 309.5625 7.449219 303.855469 C 1.496094 298.953125 0.386719 292.585938 1.53125 285.789062 C 4.644531 267.253906 15.855469 254.964844 33.074219 248.59375 C 47.683594 243.191406 62.757812 239.042969 77.597656 234.230469 C 98.769531 227.359375 119.851562 220.113281 141.109375 213.53125 C 154.199219 209.46875 167.664062 206.644531 180.789062 202.6875 C 192.519531 199.164062 204.070312 195.015625 215.585938 190.828125 C 246.144531 179.753906 277.382812 170.917969 308.386719 161.257812 C 329.808594 154.582031 351.5 148.859375 372.761719 141.613281 C 391.339844 135.296875 410.523438 132.183594 430.535156 138.054688 Z M 561.816406 387.082031 C 542.34375 393.164062 522.890625 399.316406 503.382812 405.292969 C 485.644531 410.710938 467.886719 416.132812 450.042969 421.179688 C 438.207031 424.523438 426.046875 425.742188 413.707031 425.257812 C 400.40625 424.738281 387.78125 420.625 374.996094 417.671875 C 347.90625 411.410156 321.011719 404.398438 294.03125 397.726562 C 285.875 395.703125 277.6875 393.808594 268.691406 391.660156 C 268.691406 402.429688 268.710938 412.269531 268.675781 422.089844 C 268.675781 424.308594 268.726562 426.527344 267.851562 428.691406 C 267.066406 430.660156 265.9375 431.839844 263.722656 431.644531 C 261.46875 431.464844 260.429688 430.085938 260.269531 427.996094 C 260.164062 426.507812 260.234375 425.007812 260.144531 423.523438 C 259.484375 413.824219 261.253906 404.21875 261.253906 394.539062 C 261.253906 392.375 261.753906 389.925781 258.695312 389.101562 C 253.742188 387.761719 248.917969 385.847656 243.425781 385.667969 C 242.90625 391.445312 242.371094 396.957031 241.941406 402.484375 C 240.90625 416.007812 240.171875 429.550781 239.367188 443.09375 C 237.828125 468.40625 238.4375 493.652344 239.777344 518.929688 C 240.15625 526.121094 242.425781 531.773438 249.882812 534.207031 C 251.0625 534.601562 251.972656 535.746094 253.101562 536.390625 C 268.226562 545.066406 283.035156 554.242188 300.269531 558.644531 C 313.144531 561.9375 326.339844 562.542969 339.359375 563.707031 C 361.191406 565.65625 383.183594 565.78125 405.125 566.246094 C 422.792969 566.625 440.546875 567.089844 458.105469 565.03125 C 474.074219 563.152344 490.417969 562.707031 505.6875 557.105469 C 517.1875 552.882812 527.898438 546.746094 538.910156 541.34375 C 559.386719 531.308594 577.035156 517.621094 592.824219 501.34375 C 595.453125 498.625 596.722656 495.78125 596.613281 491.914062 C 595.988281 468.640625 598.207031 445.4375 599.152344 422.199219 C 599.511719 413.539062 599.367188 404.773438 600.761719 396.078125 C 601.90625 388.921875 600.566406 381.5 602.566406 372.910156 C 588.136719 377.957031 575.40625 382.410156 561.816406 387.082031 Z M 205.109375 457.261719 C 206.519531 464.257812 205.554688 471.414062 206.304688 478.410156 C 207.484375 489.339844 205.285156 501.199219 214.960938 510.089844 C 220.019531 514.742188 224.972656 519.234375 231.179688 522.148438 C 232.75 520.289062 232.144531 518.605469 232.035156 516.996094 C 231.375 507.746094 230.195312 498.5 230.121094 489.230469 C 230.015625 475.851562 230.105469 462.46875 230.855469 449.050781 C 232 428.835938 233.234375 408.65625 235.558594 388.546875 C 236.078125 384.003906 234.558594 381.640625 230.070312 380.621094 C 223.738281 379.207031 217.355469 378.011719 211.328125 375.433594 C 207.109375 373.628906 206.074219 375.898438 206.179688 379.691406 C 206.929688 405.203125 204.769531 430.695312 205.109375 457.261719 Z M 205.109375 457.261719 " fill-opacity="1" fill-rule="nonzero"/><path fill="#000000" d="M 586.261719 284.285156 C 611.027344 292.351562 635.539062 299.847656 659.214844 309.582031 C 676.113281 316.523438 692.3125 325.269531 701.359375 342.535156 C 705.257812 349.976562 706.4375 358.347656 707.90625 366.542969 C 711.429688 386.097656 709.945312 405.882812 710.050781 425.5625 C 710.070312 429.890625 711.070312 432.179688 715.523438 433.648438 C 730.417969 438.53125 741.609375 448.621094 750.035156 461.414062 C 753.449219 466.582031 752.195312 473.398438 750.660156 479.320312 C 746.707031 494.457031 736.855469 504.902344 723.28125 512.148438 C 722.300781 512.667969 721.28125 513.113281 720.277344 513.617188 C 720.117188 513.6875 720.011719 513.867188 719.472656 514.367188 C 725.875 525.101562 730.292969 536.765625 732.976562 549.144531 C 738.785156 575.925781 740 602.6875 735.15625 629.828125 C 733.152344 641.0625 730.667969 651.976562 725.804688 662.296875 C 724.695312 664.679688 723.585938 667.023438 721.800781 668.953125 C 713.84375 677.523438 710.75 678.167969 699.699219 673.640625 C 683.820312 667.148438 674.824219 654.675781 670.175781 638.792969 C 665.777344 623.78125 662.882812 608.46875 663.578125 592.6875 C 664.742188 566.480469 671.304688 541.792969 684.410156 518.964844 C 686.324219 515.636719 687.054688 513.167969 683.070312 510.144531 C 672.929688 502.46875 667.242188 491.789062 664.257812 479.464844 C 661.898438 469.730469 665.507812 461.414062 669.996094 453.488281 C 675.128906 444.433594 682.15625 437.027344 692.296875 433.273438 C 694.351562 432.503906 695.996094 431.554688 695.925781 428.996094 C 695.316406 408.941406 696.910156 388.90625 694.207031 368.816406 C 691.132812 345.953125 677.453125 333.105469 657.625 324.484375 C 640.726562 317.148438 623.113281 311.980469 605.679688 306.199219 C 575.40625 296.164062 544.8125 287.183594 514.128906 278.417969 C 493.441406 272.511719 472.589844 267.289062 451.847656 261.582031 C 442.90625 259.132812 434.164062 256.125 424.9375 254.75 C 419.984375 254.015625 417.820312 250.242188 418.984375 245.75 C 419.914062 242.171875 424.792969 239.507812 428.851562 240.472656 C 456.070312 247.003906 483.140625 254.070312 510.105469 261.511719 C 535.515625 268.558594 560.691406 276.289062 586.261719 284.285156 Z M 702.648438 564.441406 C 702.113281 577.230469 700.289062 590.023438 702.378906 602.816406 C 703.167969 607.609375 703.683594 612.386719 703.488281 617.234375 C 703.363281 620.167969 704.042969 623.78125 699.609375 623.851562 C 695.425781 623.925781 695.371094 620.203125 695.050781 617.394531 C 694.601562 613.53125 694.851562 609.59375 694.511719 605.695312 C 693.261719 591.382812 693.527344 577.105469 694.40625 562.796875 C 695.136719 550.898438 695.371094 538.984375 697.125 525.65625 C 694.90625 529.375 693.207031 531.59375 692.152344 534.082031 C 683.765625 554.101562 677.777344 574.546875 678.507812 596.660156 C 679.046875 612.941406 680.277344 628.878906 687.753906 643.730469 C 690.902344 649.972656 694.851562 655.230469 701.898438 658.023438 C 702.878906 654.570312 701.019531 651.851562 702.058594 649.113281 C 702.808594 647.109375 703.453125 645.105469 706.136719 645.429688 C 708.460938 645.714844 708.871094 647.394531 709.085938 649.453125 C 709.371094 652.316406 710.035156 655.160156 710.535156 658.003906 C 716.273438 650.292969 718.847656 641.652344 720.476562 632.886719 C 724.035156 613.65625 725.019531 594.28125 722.960938 574.710938 C 721.371094 559.628906 717.6875 545.191406 712.320312 531.113281 C 711.070312 527.820312 709.28125 524.707031 706.097656 522.308594 C 703.757812 536.316406 703.882812 549.914062 702.648438 564.441406 Z M 734.101562 483.042969 C 736.460938 477.941406 738.769531 472.773438 735.835938 467.191406 C 731.902344 459.730469 725.535156 454.738281 718.328125 450.660156 C 716.757812 449.765625 715.613281 450.5 714.269531 451.304688 C 703.007812 458.101562 697.375 468.40625 696.996094 481.164062 C 696.785156 488.265625 699 494.6875 706.832031 498.25 C 714.878906 501.914062 720.207031 498.175781 725.570312 493.507812 C 728.753906 490.734375 731.742188 487.640625 734.101562 483.042969 Z M 688.449219 495.691406 C 689.882812 496.746094 690.953125 498.390625 693.261719 498.515625 C 684.105469 477.601562 690.757812 460.589844 707.011719 445.796875 C 692.796875 444.238281 675.96875 462.523438 678.277344 475.527344 C 679.582031 483.042969 682.550781 489.644531 688.449219 495.691406 Z M 688.449219 495.691406 " fill-opacity="1" fill-rule="nonzero"/><path fill="#000000" d="M 123.105469 248.96875 C 137.640625 243.78125 151.679688 238.59375 166.25 234.710938 C 182.523438 230.382812 198.382812 224.460938 214.460938 219.328125 C 218.160156 218.144531 221.988281 217.304688 225.777344 216.5 C 228.191406 215.980469 230.445312 216.714844 231.140625 219.273438 C 231.820312 221.757812 229.910156 223.082031 227.90625 223.726562 C 224.203125 224.890625 220.378906 225.640625 216.660156 226.785156 C 193.289062 233.980469 169.523438 240.132812 146.671875 248.71875 C 118.5625 259.273438 89.382812 266.734375 61.738281 278.597656 C 56.480469 280.851562 50.8125 282.15625 45.304688 283.835938 C 43.121094 284.5 41.15625 284.089844 39.976562 282.011719 C 38.671875 279.722656 40.636719 278.542969 42.03125 277.503906 C 43.480469 276.414062 45.179688 275.449219 46.914062 274.945312 C 70.570312 267.96875 93.027344 257.394531 117.007812 251.402344 C 118.972656 250.902344 120.796875 249.882812 123.105469 248.96875 Z M 123.105469 248.96875 " fill-opacity="1" fill-rule="nonzero"/><path fill="#000000" d="M 513.144531 368.007812 C 496.496094 372.804688 480.636719 378.582031 464.3125 382.949219 C 457.730469 384.699219 451.507812 387.847656 445.105469 390.355469 C 442.585938 391.355469 439.652344 392.359375 438.367188 389.136719 C 436.972656 385.667969 439.207031 383.878906 442.460938 382.609375 C 455.085938 377.652344 467.996094 373.679688 480.941406 369.671875 C 505.722656 362 530.328125 353.769531 555.023438 345.84375 C 566.859375 342.050781 578.75 338.4375 590.625 334.753906 C 591.515625 334.484375 592.375 333.984375 593.269531 333.910156 C 595.488281 333.714844 598.117188 333.285156 598.992188 336.023438 C 599.886719 338.832031 598.207031 340.585938 595.558594 341.425781 C 590.070312 343.160156 584.597656 344.878906 579.109375 346.613281 C 558.796875 353.054688 538.464844 359.476562 518.152344 365.933594 C 516.578125 366.417969 515.09375 367.257812 513.144531 368.007812 Z M 513.144531 368.007812 " fill-opacity="1" fill-rule="nonzero"/><path fill="#000000" d="M 320.851562 188.628906 C 337.070312 182.597656 352.949219 176.875 368.683594 170.753906 C 376.300781 167.785156 383.847656 164.78125 391.910156 163.207031 C 392.824219 163.027344 393.734375 162.652344 394.628906 162.722656 C 397.148438 162.902344 400.707031 161.042969 401.496094 165.210938 C 402.210938 168.894531 398.832031 169.289062 396.453125 169.898438 C 371.792969 176.300781 348.816406 187.445312 324.660156 195.371094 C 313.933594 198.878906 302.917969 201.632812 292.511719 206.050781 C 289.523438 207.324219 287.324219 207.144531 286.25 203.996094 C 285.25 201.042969 287.234375 199.488281 289.773438 198.683594 C 299.984375 195.335938 310.210938 192.082031 320.851562 188.628906 Z M 320.851562 188.628906 " fill-opacity="1" fill-rule="nonzero"/><path fill="#000000" d="M 678.742188 303.355469 C 679.6875 301.566406 680.996094 300.851562 682.40625 300.3125 C 702.148438 292.691406 721.496094 284.125 740.894531 275.714844 C 743.398438 274.625 746.261719 273.855469 747.746094 276.84375 C 749.121094 279.632812 747.65625 281.78125 744.777344 282.996094 C 725.089844 291.207031 705.417969 299.472656 685.714844 307.667969 C 681.851562 309.257812 678.617188 309.3125 678.742188 303.355469 Z M 678.742188 303.355469 " fill-opacity="1" fill-rule="nonzero"/><path fill="#000000" d="M 251.027344 217.304688 C 248.113281 218.683594 245.214844 220.523438 243.585938 216.804688 C 242.121094 213.421875 244.214844 211.242188 247.484375 210.167969 C 251.328125 208.898438 255.15625 207.5 259.035156 206.339844 C 261.398438 205.621094 264.0625 205.230469 265.082031 208.253906 C 266.027344 211.042969 263.792969 212.207031 261.683594 213.101562 C 258.285156 214.496094 254.835938 215.800781 251.027344 217.304688 Z M 251.027344 217.304688 " fill-opacity="1" fill-rule="nonzero"/><path fill="#000000" d="M 266.816406 446.511719 C 270.230469 452.609375 268.335938 458.765625 268.496094 464.777344 C 268.550781 466.421875 267.171875 467.351562 265.492188 467.460938 C 263.667969 467.585938 262.058594 467.066406 261.558594 465.152344 C 260.089844 459.660156 260.449219 454.132812 261.773438 448.710938 C 262.253906 446.636719 263.917969 445.203125 266.816406 446.511719 Z M 266.816406 446.511719 " fill-opacity="1" fill-rule="nonzero"/><path fill="#000000" d="M 552.660156 510.199219 C 553.199219 513.5625 551.839844 515.191406 548.976562 515.476562 C 547.082031 515.671875 545.796875 514.6875 545.402344 512.8125 C 544.992188 510.894531 545.257812 509.105469 547.15625 508.035156 C 549.550781 506.65625 551.339844 507.390625 552.660156 510.199219 Z M 552.660156 510.199219 " fill-opacity="1" fill-rule="nonzero"/><path fill="#000000" d="M 523.945312 522.703125 C 526.914062 521.238281 528.613281 522.453125 529.613281 524.707031 C 530.398438 526.460938 529.453125 527.910156 528.023438 528.945312 C 526.429688 530.09375 524.804688 529.714844 523.535156 528.464844 C 521.761719 526.691406 521.121094 524.742188 523.945312 522.703125 Z M 523.945312 522.703125 " fill-opacity="1" fill-rule="nonzero"/><path fill="#000000" d="M 571.0625 492.738281 C 573.886719 493.847656 574.261719 495.707031 573.171875 497.765625 C 572.421875 499.160156 570.953125 499.570312 569.363281 499.070312 C 567.859375 498.605469 566.679688 497.730469 566.609375 496.03125 C 566.484375 493.273438 568.398438 492.773438 571.0625 492.738281 Z M 571.0625 492.738281 " fill-opacity="1" fill-rule="nonzero"/><path fill="#000000" d="M 500.679688 534.457031 C 503.703125 536.140625 504.1875 538.195312 502.023438 540.34375 C 500.628906 541.738281 498.769531 541.398438 497.839844 539.71875 C 496.445312 537.140625 497.230469 535.15625 500.679688 534.457031 Z M 500.679688 534.457031 " fill-opacity="1" fill-rule="nonzero"/></svg>